HIERARCHY
ROOT Quadruped
{
	OFFSET	0	18	-7.5
	CHANNELS 6 Xposition Yposition Zposition Zrotation Xrotation Yrotation
	JOINT QuadrupedLegRight0
	{
		OFFSET	0	-1	2.5
		CHANNELS 3 Zrotation Xrotation Yrotation
		JOINT QuadrupedLegRight1
		{
			OFFSET	0	-8	-0
			CHANNELS 3 Zrotation Xrotation Yrotation
			JOINT QuadrupedLegRight2
			{
				OFFSET	0	-9	-0
				CHANNELS 3 Zrotation Xrotation Yrotation
				End Site
				{
					OFFSET	0	-0.9	-0
				}
			}
		}
	}
	JOINT QuadrupedLegLeft0
	{
		OFFSET	0	-1	-2.5
		CHANNELS 3 Zrotation Xrotation Yrotation
		JOINT QuadrupedLegLeft1
		{
			OFFSET	0	-8	-0
			CHANNELS 3 Zrotation Xrotation Yrotation
			JOINT QuadrupedLegLeft2
			{
				OFFSET	0	-9	-0
				CHANNELS 3 Zrotation Xrotation Yrotation
				End Site
				{
					OFFSET	0	-0.9	-0
				}
			}
		}
	}
	JOINT TRONC
	{
		OFFSET	15	0	-0
		CHANNELS 3 Zrotation Xrotation Yrotation
		JOINT QuadrupedLegLeft0
		{
			OFFSET	0	-1	-2.5
			CHANNELS 3 Zrotation Xrotation Yrotation
			JOINT QuadrupedLegLeft1
			{
				OFFSET	0	-8	-0
				CHANNELS 3 Zrotation Xrotation Yrotation
				JOINT QuadrupedLegLeft2
				{
					OFFSET	0	-9	-0
					CHANNELS 3 Zrotation Xrotation Yrotation
					End Site
					{
						OFFSET	0	-0.9	-0
					}
				}
			}
		}
		JOINT QuadrupedLegRight0
		{
			OFFSET	0	-1	2.5
			CHANNELS 3 Zrotation Xrotation Yrotation
			JOINT QuadrupedLegRight1
			{
				OFFSET	0	-8	-0
				CHANNELS 3 Zrotation Xrotation Yrotation
				JOINT QuadrupedLegRight2
				{
					OFFSET	0	-9	-0
					CHANNELS 3 Zrotation Xrotation Yrotation
					End Site
					{
						OFFSET	0	-0.9	-0
					}
				}
			}
		}
		JOINT TRONC
		{
			OFFSET	8	0	-0
			CHANNELS 3 Zrotation Xrotation Yrotation
			End Site
			{
				OFFSET	0.8	0	-0
			}
		}
	}
}
MOTION
Frames:	80
Frame Time: 1
-99	0	-0	-0	-0	0	-0	0	0	-30	0	0	0	0	0	42	-3	3	-66	6	0	0	0	5	0	0	0	7	0	-11	-51	-8	0	0	0	98	-0	0	0	-30	0	0	0	0	0	0	0	0	
-94.25	0	-0	-0	-0	0	-16	-3	6	-32	7	0	0	0	-166	-0	0	0	-30	0	0	0	0	0	0	0	0	-0	0	0	-30	0	0	0	0	0	32	-3	-14	-71	-9	0	0	0	-114	0	0	0	
-94.25	0	-0	-0	-0	0	-16	-3	6	-32	7	0	0	0	-166	-0	0	0	-30	0	0	0	0	0	0	0	0	42	-5	0	-0	-2	0	0	0	134	32	-3	-14	-71	-9	0	0	0	-114	0	0	0	
-91.875	0	-0	-0	-0	0	-0	0	0	-30	0	0	0	0	0	7	0	-11	-51	-8	0	0	0	98	0	0	0	62	-6	-7	-50	-8	0	0	0	105	-0	0	0	-30	0	0	0	0	0	0	0	0	
-89.5	0	-0	-0	-0	0	42	-5	0	-0	-2	0	0	0	134	-0	0	0	-30	0	0	0	0	0	0	0	0	62	-8	-8	-62	-10	0	0	0	-135	2	-1	5	-48	4	0	0	0	34	0	0	0	
-87.125	0	-0	-0	-0	0	62	-6	-7	-50	-8	0	0	0	105	-0	0	0	-30	0	0	0	0	0	0	0	0	-0	0	0	-30	0	0	0	0	0	-16	-3	6	-32	7	0	0	0	-166	0	0	0	
-87.125	0	-0	-0	-0	0	62	-6	-7	-50	-8	0	0	0	105	42	-5	0	-0	-2	0	0	0	134	0	0	0	-0	0	0	-30	0	0	0	0	0	-16	-3	6	-32	7	0	0	0	-166	0	0	0	
-84.75	0	-0	-0	-0	0	62	-8	-8	-62	-10	0	0	0	-135	62	-6	-7	-50	-8	0	0	0	105	0	0	0	54	-7	9	-83	3	0	0	0	170	-0	0	0	-30	0	0	0	0	0	0	0	0	
-80	0	-0	-0	-0	0	54	-7	9	-83	3	0	0	0	170	-0	0	0	-30	0	0	0	0	0	0	0	0	31	-20	-8	-82	2	0	0	0	-50	49	-6	12	-84	7	0	0	0	53	0	0	0	
-70	0	-0	-0	-0	0	-7	-14	1	-49	9	0	0	0	75	-0	0	0	-30	0	0	0	0	0	0	0	0	-0	0	0	-30	0	0	0	0	0	-0	0	0	-30	0	0	0	0	0	0	0	0	
-70	0	-0	-0	-0	0	-7	-14	1	-49	9	0	0	0	75	-0	0	0	-30	0	0	0	0	0	0	0	0	50	-14	-10	-20	-9	0	0	0	60	-0	0	0	-30	0	0	0	0	0	0	0	0	
-67.5	0	-0	-0	-0	0	-30	-6	12	-20	1	0	0	0	-69	-7	-14	1	-49	9	0	0	0	75	0	0	0	-0	0	0	-30	0	0	0	0	0	-0	0	0	-30	0	0	0	0	0	0	0	0	
-67.5	0	-0	-0	-0	0	-30	-6	12	-20	1	0	0	0	-69	-7	-14	1	-49	9	0	0	0	75	0	0	0	-0	0	0	-30	0	0	0	0	0	49	-6	12	-84	7	0	0	0	53	0	0	0	
-65	0	-0	-0	-0	0	-0	0	0	-30	0	0	0	0	0	-30	-6	12	-20	1	0	0	0	-69	0	0	0	-0	0	0	-30	0	0	0	0	0	-0	0	0	-30	0	0	0	0	0	0	0	0	
-65	0	-0	-0	-0	0	49	-6	12	-84	7	0	0	0	53	-30	-6	12	-20	1	0	0	0	-69	0	0	0	-0	0	0	-30	0	0	0	0	0	-0	0	0	-30	0	0	0	0	0	0	0	0	
-62.5	0	-0	-0	-0	0	-0	0	0	-30	0	0	0	0	0	-0	0	0	-30	0	0	0	0	0	0	0	0	53	-12	12	-76	-3	0	0	0	-120	-0	0	0	-30	0	0	0	0	0	0	0	0	
-60	0	-0	-0	-0	0	-0	0	0	-30	0	0	0	0	0	49	-6	12	-84	7	0	0	0	53	0	0	0	-0	0	0	-30	0	0	0	0	0	6	0	7	-63	-6	0	0	0	155	0	0	0	
-55	0	-0	-0	-0	0	-0	0	0	-30	0	0	0	0	0	-0	0	0	-30	0	0	0	0	0	0	0	0	-0	0	0	-30	0	0	0	0	0	-0	0	0	-30	0	0	0	0	0	0	0	0	
-55	0	-0	-0	-0	0	-0	0	0	-30	0	0	0	0	0	-0	0	0	-30	0	0	0	0	0	0	0	0	-0	0	0	-30	0	0	0	0	0	75	-5	-4	-103	-6	0	0	0	-106	0	0	0	
-52.5	0	-0	-0	-0	0	-0	0	0	-30	0	0	0	0	0	6	0	7	-63	-6	0	0	0	155	0	0	0	-0	0	0	-30	0	0	0	0	0	63	-13	1	-105	4	0	0	0	-92	0	0	0	
-50	0	-0	-0	-0	0	49	-6	12	-84	7	0	0	0	53	-0	0	0	-30	0	0	0	0	0	0	0	0	-33	-11	3	-13	-9	0	0	0	-173	50	-15	-11	-108	-6	0	0	0	-117	0	0	0	
-46.25	0.5	-0	7.59464	-0	0	31	-20	-8	-82	2	0	0	0	-50	-36	-7	5	-24	4	0	0	0	136	0	0	0	-0	0	0	-30	0	0	0	0	0	20	-23	-12	-80	6	0	0	0	126	0	0	0	
-46.25	0.5	-0	7.59464	-0	0	31	-20	-8	-82	2	0	0	0	-50	-36	-7	5	-24	4	0	0	0	136	0	0	0	49	-6	12	-84	7	0	0	0	53	20	-23	-12	-80	6	0	0	0	126	0	0	0	
-42.5	1	-0	7.59464	-0	0	6	0	7	-63	-6	0	0	0	155	-0	0	0	-30	0	0	0	0	0	0	0	0	31	-20	-8	-82	2	0	0	0	-50	1	-13	-4	-68	8	0	0	0	143	0	0	0	
-38.75	1.5	-0	7.59464	-0	0	-15	-10	1	-44	6	0	0	0	-24	54	-14	14	-77	-5	0	0	0	-92	0	0	0	6	0	7	-63	-6	0	0	0	155	-0	0	0	-30	0	0	0	0	0	0	0	0	
-38.75	1.5	-0	7.59464	-0	0	-15	-10	1	-44	6	0	0	0	-24	54	-14	14	-77	-5	0	0	0	-92	0	0	0	6	0	7	-63	-6	0	0	0	155	-0	0	0	-30	0	0	0	0	0	0	0	0	
-38.75	1.5	-0	7.59464	-0	0	-15	-10	1	-44	6	0	0	0	-24	54	-14	14	-77	-5	0	0	0	-92	0	0	0	6	0	7	-63	-6	0	0	0	155	60	-14	7	-98	-1	0	0	0	-57	0	0	0	
-35	2	-0	7.59464	-0	0	-0	0	0	-30	0	0	0	0	0	-0	0	0	-30	0	0	0	0	0	0	0	0	-31	-7	-12	-16	-3	0	0	0	-143	36	-17	3	-94	0	0	0	0	97	0	0	0	
-35	2	-0	7.59464	-0	0	48	-2	4	-90	-8	0	0	0	90	-0	0	0	-30	0	0	0	0	0	0	0	0	-31	-7	-12	-16	-3	0	0	0	-143	36	-17	3	-94	0	0	0	0	97	0	0	0	
-31.25	2.5	-0	7.59464	-0	0	29	-8	2	-84	-6	0	0	0	6	15	-23	1	-68	-4	0	0	0	3	0	0	0	-0	0	0	-30	0	0	0	0	0	10	-16	8	-77	8	0	0	0	-36	0	0	0	
-27.5	3	-0	7.59464	-0	0	-0	0	0	-30	0	0	0	0	0	-17	-23	-2	-34	4	0	0	0	-1	0	0	0	74	-1	-7	-14	5	0	0	0	-135	-0	0	0	-30	0	0	0	0	0	0	0	0	
-27.5	3	-0	7.59464	-0	0	-0	0	0	-30	0	0	0	0	0	-0	0	0	-30	0	0	0	0	0	0	0	0	74	-1	-7	-14	5	0	0	0	-135	-0	0	0	-30	0	0	0	0	0	0	0	0	
-27.5	3	-0	7.59464	-0	0	-0	0	0	-30	0	0	0	0	0	44	-3	5	-77	0	0	0	0	-22	0	0	0	74	-1	-7	-14	5	0	0	0	-135	-0	0	0	-30	0	0	0	0	0	0	0	0	
-23.75	3.5	-0	7.59464	-0	0	-0	0	0	-30	0	0	0	0	0	22	-13	0	-69	9	0	0	0	154	0	0	0	99	-7	-11	-72	3	0	0	0	119	-0	0	0	-30	0	0	0	0	0	0	0	0	
-23.75	3.5	-0	7.59464	-0	0	-0	0	0	-30	0	0	0	0	0	22	-13	0	-69	9	0	0	0	154	0	0	0	99	-7	-11	-72	3	0	0	0	119	68	0	-3	-5	2	0	0	0	152	0	0	0	
-20	4	-0	7.59464	-0	0	-0	0	0	-30	0	0	0	0	0	2	-5	1	-58	-1	0	0	0	123	0	0	0	-0	0	0	-30	0	0	0	0	0	-0	0	0	-30	0	0	0	0	0	0	0	0	
-15	6	-0	21.8014	-0	0	44	-3	5	-77	0	0	0	0	-22	-27	-5	-3	-29	-2	0	0	0	111	0	0	0	61	0	-3	-75	2	0	0	0	-130	51	-1	-6	-42	0	0	0	0	-24	0	0	0	
-10	8	-0	21.8014	-0	0	13	-12	-4	-64	6	0	0	0	-77	-0	0	0	-30	0	0	0	0	0	0	0	0	40	-2	-1	-84	5	0	0	0	-32	-0	0	0	-30	0	0	0	0	0	0	0	0	
-7.125	8.625	-0	12.2648	-0	0	-21	-3	2	-18	-1	0	0	0	-148	76	-10	1	-117	-9	0	0	0	-92	0	0	0	-0	0	0	-30	0	0	0	0	0	46	-3	-14	-100	-9	0	0	0	-139	0	0	0	
-4.25	9.25	-0	12.2648	-0	0	-0	0	0	-30	0	0	0	0	0	56	-17	6	-115	-1	0	0	0	-40	0	0	0	-0	0	0	-30	0	0	0	0	0	26	-20	-10	-96	9	0	0	0	91	0	0	0	
-1.375	9.875	-0	12.2648	-0	0	65	-12	-2	-112	-5	0	0	0	153	39	-23	7	-112	5	0	0	0	149	0	0	0	-0	0	0	-30	0	0	0	0	0	-0	0	0	-30	0	0	0	0	0	0	0	0	
1.5	10.5	-0	12.2648	-0	0	46	-18	-13	-111	-10	0	0	0	177	-0	0	0	-30	0	0	0	0	0	0	0	0	-0	0	0	-30	0	0	0	0	0	-0	0	0	-30	0	0	0	0	0	0	0	0	
1.5	10.5	-0	12.2648	-0	0	46	-18	-13	-111	-10	0	0	0	177	-0	0	0	-30	0	0	0	0	0	0	0	0	44	-3	5	-77	0	0	0	0	-22	-0	0	0	-30	0	0	0	0	0	0	0	0	
4.375	11.125	-0	12.2648	-0	0	22	-15	-1	-98	0	0	0	0	35	-0	0	0	-30	0	0	0	0	0	0	0	0	31	-13	3	-77	10	0	0	0	-101	-0	0	0	-30	0	0	0	0	0	0	0	0	
7.25	11.75	-0	12.2648	-0	0	3	-13	6	-84	7	0	0	0	-23	-0	0	0	-30	0	0	0	0	0	0	0	0	10	-5	-3	-62	-4	0	0	0	-58	29	-10	12	-53	0	0	0	0	158	0	0	0	
10.125	12.375	-0	12.2648	-0	0	-17	-13	-1	-64	8	0	0	0	16	-0	0	0	-30	0	0	0	0	0	0	0	0	-10	-6	1	-40	1	0	0	0	-107	20	-16	0	-55	-2	0	0	0	-46	0	0	0	
10.125	12.375	-0	12.2648	-0	0	-17	-13	-1	-64	8	0	0	0	16	48	-2	4	-90	-8	0	0	0	90	0	0	0	-10	-6	1	-40	1	0	0	0	-107	20	-16	0	-55	-2	0	0	0	-46	0	0	0	
10.125	12.375	-0	12.2648	-0	0	-17	-13	-1	-64	8	0	0	0	16	48	-2	4	-90	-8	0	0	0	90	0	0	0	-0	0	0	-30	0	0	0	0	0	20	-16	0	-55	-2	0	0	0	-46	0	0	0	
10.125	12.375	-0	12.2648	-0	0	-17	-13	-1	-64	8	0	0	0	16	48	-2	4	-90	-8	0	0	0	90	0	0	0	28	-4	-12	-51	1	0	0	0	30	20	-16	0	-55	-2	0	0	0	-46	0	0	0	
13	13	-0	12.2648	-0	0	-0	0	0	-30	0	0	0	0	0	-0	0	0	-30	0	0	0	0	0	0	0	0	-0	0	0	-30	0	0	0	0	0	-0	0	0	-30	0	0	0	0	0	0	0	0	
15.9375	12.8125	-0	-3.65222	-0	0	46	0	-10	-0	7	0	0	0	18	2	-9	1	-59	1	0	0	0	37	0	0	0	-0	0	0	-30	0	0	0	0	0	-21	-11	-2	-33	-8	0	0	0	-119	0	0	0	
18.875	12.625	-0	-3.65222	-0	0	-0	0	0	-30	0	0	0	0	0	-24	-15	-4	-30	9	0	0	0	165	0	0	0	-0	0	0	-30	0	0	0	0	0	-0	0	0	-30	0	0	0	0	0	0	0	0	
18.875	12.625	-0	-3.65222	-0	0	-0	0	0	-30	0	0	0	0	0	-24	-15	-4	-30	9	0	0	0	165	0	0	0	-0	0	0	-30	0	0	0	0	0	41	-22	-13	-3	1	0	0	0	11	0	0	0	
18.875	12.625	-0	-3.65222	-0	0	-0	0	0	-30	0	0	0	0	0	-0	0	0	-30	0	0	0	0	0	0	0	0	-0	0	0	-30	0	0	0	0	0	43	-23	-5	-4	4	0	0	0	162	0	0	0	
18.875	12.625	-0	-3.65222	-0	0	-0	0	0	-30	0	0	0	0	0	42	-21	3	-0	6	0	0	0	-91	0	0	0	-0	0	0	-30	0	0	0	0	0	43	-23	-5	-4	4	0	0	0	162	0	0	0	
21.8125	12.4375	-0	-3.65222	-0	0	-0	0	0	-30	0	0	0	0	0	64	-21	13	-52	8	0	0	0	161	0	0	0	-0	0	0	-30	0	0	0	0	0	-0	0	0	-30	0	0	0	0	0	0	0	0	
36.5	11.5	-0	-3.65222	-0	0	-0	0	0	-30	0	0	0	0	0	3	-26	-6	-57	-2	0	0	0	-32	0	0	0	-0	0	0	-30	0	0	0	0	0	-0	0	0	-30	0	0	0	0	0	0	0	0	
39.4375	11.3125	-0	-3.65222	-0	0	-0	0	0	-30	0	0	0	0	0	-20	-15	-1	-37	-8	0	0	0	-8	0	0	0	-0	0	0	-30	0	0	0	0	0	-0	0	0	-30	0	0	0	0	0	0	0	0	
39.4375	11.3125	-0	-3.65222	-0	0	-0	0	0	-30	0	0	0	0	0	-20	-15	-1	-37	-8	0	0	0	-8	0	0	0	-0	0	0	-30	0	0	0	0	0	63	0	-5	-43	10	0	0	0	-144	0	0	0	
39.4375	11.3125	-0	-3.65222	-0	0	-0	0	0	-30	0	0	0	0	0	-20	-15	-1	-37	-8	0	0	0	-8	0	0	0	-0	0	0	-30	0	0	0	0	0	63	0	-5	-43	10	0	0	0	-144	0	0	0	
39.4375	11.3125	-0	-3.65222	-0	0	43	-23	-5	-4	4	0	0	0	162	-20	-15	-1	-37	-8	0	0	0	-8	0	0	0	-0	0	0	-30	0	0	0	0	0	63	0	-5	-43	10	0	0	0	-144	0	0	0	
42.375	11.125	-0	-3.65222	-0	0	-0	0	0	-30	0	0	0	0	0	-0	0	0	-30	0	0	0	0	0	0	0	0	12	-3	-5	-72	0	0	0	0	31	-0	0	0	-30	0	0	0	0	0	0	0	0	
45.3125	10.9375	-0	-3.65222	-0	0	-0	0	0	-30	0	0	0	0	0	46	0	-10	-0	7	0	0	0	18	0	0	0	-0	0	0	-30	0	0	0	0	0	-0	0	0	-30	0	0	0	0	0	0	0	0	
48.25	10.75	-0	-3.65222	-0	0	-0	0	0	-30	0	0	0	0	0	-0	0	0	-30	0	0	0	0	0	0	0	0	-0	0	0	-30	0	0	0	0	0	-0	0	0	-30	0	0	0	0	0	0	0	0	
60	10	-0	-3.65222	-0	0	-0	0	0	-30	0	0	0	0	0	-0	0	0	-30	0	0	0	0	0	0	0	0	56	-10	10	-1	8	0	0	0	-124	-0	0	0	-30	0	0	0	0	0	0	0	0	
60	10	-0	-3.65222	-0	0	-0	0	0	-30	0	0	0	0	0	-0	0	0	-30	0	0	0	0	0	0	0	0	59	-8	-13	-6	3	0	0	0	98	-0	0	0	-30	0	0	0	0	0	0	0	0	
60	10	-0	-3.65222	-0	0	-0	0	0	-30	0	0	0	0	0	53	-3	9	-4	6	0	0	0	88	0	0	0	59	-8	-13	-6	3	0	0	0	98	-0	0	0	-30	0	0	0	0	0	0	0	0	
60	10	-0	-3.65222	-0	0	-0	0	0	-30	0	0	0	0	0	52	-4	-4	-2	7	0	0	0	-179	0	0	0	59	-8	-13	-6	3	0	0	0	98	-0	0	0	-30	0	0	0	0	0	0	0	0	
60	10	-0	-3.65222	-0	0	-0	0	0	-30	0	0	0	0	0	52	-4	-4	-2	7	0	0	0	-179	0	0	0	59	-8	-13	-6	3	0	0	0	98	71	-5	-14	-59	10	0	0	0	-136	0	0	0	
63.75	10.125	-0	1.90915	-0	0	-0	0	0	-30	0	0	0	0	0	66	-4	4	-48	7	0	0	0	-173	0	0	0	56	-7	5	-28	1	0	0	0	137	-0	0	0	-30	0	0	0	0	0	0	0	0	
75	10.5	-0	1.90915	-0	0	-0	0	0	-30	0	0	0	0	0	39	-12	0	-86	9	0	0	0	39	0	0	0	40	-14	-13	-83	-9	0	0	0	169	-0	0	0	-30	0	0	0	0	0	0	0	0	
82.5	10.75	-0	1.90915	-0	0	-0	0	0	-30	0	0	0	0	0	-0	0	0	-30	0	0	0	0	0	0	0	0	-7	-14	1	-49	9	0	0	0	75	-0	0	0	-30	0	0	0	0	0	0	0	0	
82.5	10.75	-0	1.90915	-0	0	-0	0	0	-30	0	0	0	0	0	-0	0	0	-30	0	0	0	0	0	0	0	0	-7	-14	1	-49	9	0	0	0	75	45	0	-13	-74	7	0	0	0	-147	0	0	0	
82.5	10.75	-0	1.90915	-0	0	-0	0	0	-30	0	0	0	0	0	-0	0	0	-30	0	0	0	0	0	0	0	0	-7	-14	1	-49	9	0	0	0	75	45	0	-13	-74	7	0	0	0	-147	0	0	0	
82.5	10.75	-0	1.90915	-0	0	45	0	-13	-74	7	0	0	0	-147	-0	0	0	-30	0	0	0	0	0	0	0	0	-7	-14	1	-49	9	0	0	0	75	45	0	-13	-74	7	0	0	0	-147	0	0	0	
82.5	10.75	-0	1.90915	-0	0	-0	0	0	-30	0	0	0	0	0	-0	0	0	-30	0	0	0	0	0	0	0	0	-7	-14	1	-49	9	0	0	0	75	45	0	-13	-74	7	0	0	0	-147	0	0	0	
82.5	10.75	-0	1.90915	-0	0	45	0	-13	-74	7	0	0	0	-147	-0	0	0	-30	0	0	0	0	0	0	0	0	-7	-14	1	-49	9	0	0	0	75	45	0	-13	-74	7	0	0	0	-147	0	0	0	
82.5	10.75	-0	1.90915	-0	0	-0	0	0	-30	0	0	0	0	0	-0	0	0	-30	0	0	0	0	0	0	0	0	-7	-14	1	-49	9	0	0	0	75	45	0	-13	-74	7	0	0	0	-147	0	0	0	
82.5	10.75	-0	1.90915	-0	0	45	0	-13	-74	7	0	0	0	-147	-0	0	0	-30	0	0	0	0	0	0	0	0	-7	-14	1	-49	9	0	0	0	75	45	0	-13	-74	7	0	0	0	-147	0	0	0	
82.5	10.75	-0	1.90915	-0	0	-0	0	0	-30	0	0	0	0	0	-0	0	0	-30	0	0	0	0	0	0	0	0	-7	-14	1	-49	9	0	0	0	75	45	0	-13	-74	7	0	0	0	-147	0	0	0	
